<svg width="26" height="26" viewBox="0 0 26 26" fill="none" xmlns="http://www.w3.org/2000/svg">
<path d="M4.79243 4.69067C4.23158 4.69067 3.6937 4.91347 3.29712 5.31005C2.90053 5.70664 2.67773 6.24452 2.67773 6.80537V11.0348C3.23859 11.0348 3.77647 11.2576 4.17305 11.6542C4.56964 12.0507 4.79243 12.5886 4.79243 13.1495C4.79243 13.7103 4.56964 14.2482 4.17305 14.6448C3.77647 15.0414 3.23859 15.2642 2.67773 15.2642V19.4936C2.67773 20.0544 2.90053 20.5923 3.29712 20.9889C3.6937 21.3855 4.23158 21.6083 4.79243 21.6083H21.71C22.2709 21.6083 22.8088 21.3855 23.2054 20.9889C23.6019 20.5923 23.8247 20.0544 23.8247 19.4936V15.2642C23.2639 15.2642 22.726 15.0414 22.3294 14.6448C21.9328 14.2482 21.71 13.7103 21.71 13.1495C21.71 12.5886 21.9328 12.0507 22.3294 11.6542C22.726 11.2576 23.2639 11.0348 23.8247 11.0348V6.80537C23.8247 6.24452 23.6019 5.70664 23.2054 5.31005C22.8088 4.91347 22.2709 4.69067 21.71 4.69067H4.79243ZM16.952 7.86272L18.538 9.44875L9.55051 18.4362L7.96448 16.8502L16.952 7.86272ZM9.87829 7.90502C10.9145 7.90502 11.7498 8.74032 11.7498 9.77653C11.7498 10.2729 11.5526 10.7489 11.2016 11.0999C10.8507 11.4509 10.3746 11.648 9.87829 11.648C8.84208 11.648 8.00678 10.8127 8.00678 9.77653C8.00678 9.28017 8.20395 8.80415 8.55493 8.45317C8.90591 8.10219 9.38193 7.90502 9.87829 7.90502ZM16.6242 14.6509C17.6604 14.6509 18.4957 15.4862 18.4957 16.5224C18.4957 17.0188 18.2985 17.4948 17.9475 17.8458C17.5966 18.1968 17.1205 18.3939 16.6242 18.3939C15.588 18.3939 14.7527 17.5586 14.7527 16.5224C14.7527 16.0261 14.9498 15.55 15.3008 15.1991C15.6518 14.8481 16.1278 14.6509 16.6242 14.6509Z" fill="#F1EAE4"/>
</svg>
